<?xml version="1.0" encoding="utf-8"?>
<!-- Generator: Adobe Illustrator 17.1.0, SVG Export Plug-In . SVG Version: 6.00 Build 0)  -->
<!DOCTYPE svg PUBLIC "-//W3C//DTD SVG 1.1//EN" "http://www.w3.org/Graphics/SVG/1.1/DTD/svg11.dtd">
<svg version="1.1" id="Layer_1" xmlns="http://www.w3.org/2000/svg" xmlns:xlink="http://www.w3.org/1999/xlink" x="0px" y="0px"
	 viewBox="0 0 24 24" enable-background="new 0 0 24 24" xml:space="preserve">
<g>
	<path fill="#333333" d="M12.939,6.053c-0.121-0.093-0.26-0.159-0.422-0.196c-0.159-0.037-0.331-0.056-0.512-0.056
		c-0.182,0-0.354,0.019-0.517,0.056c-0.163,0.037-0.305,0.103-0.426,0.196c-0.12,0.093-0.215,0.217-0.285,0.369
		c-0.07,0.153-0.104,0.344-0.104,0.574c0,0.225,0.035,0.414,0.104,0.569c0.07,0.155,0.164,0.281,0.285,0.374
		c0.121,0.093,0.263,0.161,0.426,0.2c0.163,0.04,0.335,0.06,0.517,0.06c0.181,0,0.353-0.02,0.512-0.06
		c0.162-0.039,0.301-0.108,0.422-0.2c0.12-0.093,0.217-0.218,0.289-0.374c0.072-0.154,0.108-0.344,0.108-0.569
		c0-0.23-0.036-0.422-0.108-0.574C13.156,6.27,13.059,6.146,12.939,6.053z"/>
	<rect x="10.777" y="9.159" fill="#333333" width="2.447" height="8.967"/>
</g>
<rect fill="none" width="24" height="24"/>
<path fill="#333333" d="M12,0C5.373,0,0,5.373,0,12c0,6.627,5.373,12,12,12s12-5.373,12-12C24,5.373,18.627,0,12,0z M12,22
	C6.477,22,2,17.523,2,12C2,6.477,6.477,2,12,2s10,4.477,10,10C22,17.523,17.523,22,12,22z"/>
</svg>
