<?xml version="1.0" encoding="iso-8859-1"?>
<!-- Generator: Adobe Illustrator 19.1.0, SVG Export Plug-In . SVG Version: 6.00 Build 0)  -->
<svg xmlns="http://www.w3.org/2000/svg" xmlns:xlink="http://www.w3.org/1999/xlink" version="1.1" id="Capa_1" x="0px" y="0px" viewBox="0 0 295.239 295.239" style="enable-background:new 0 0 295.239 295.239;" xml:space="preserve" width="512px" height="512px">
<g>
	<g id="Link_2_">
		<g>
			<path d="M291.903,51.42L243.809,3.326c-4.422-4.422-11.61-4.422-16.031,0L139.594,91.51c-4.422,4.422-4.422,11.61,0,16.031     l8.004,8.004l88.206-88.184l32.063,32.063l-88.184,88.184l8.027,8.027c4.422,4.422,11.61,4.422,16.031,0l88.184-88.184     C296.347,63.03,296.347,55.842,291.903,51.42z M139.548,171.621l47.958-47.981c4.422-4.422,4.422-11.61,0-16.031     c-4.422-4.422-11.61-4.422-16.031,0l-47.981,47.981l-15.963-15.986c-4.422-4.422-11.61-4.422-16.031,0L3.316,227.787     c-4.422,4.422-4.422,11.61,0,16.031l48.094,48.094c4.422,4.422,11.61,4.422,16.031,0l88.184-88.184     c4.422-4.422,4.422-11.61,0-16.031L139.548,171.621z M59.415,267.877l-32.063-32.063l88.184-88.206l7.959,7.959l-16.145,16.167     c-4.422,4.422-4.422,11.61,0,16.031c4.422,4.422,11.61,4.422,16.031,0l16.167-16.167l8.05,8.095L59.415,267.877z" fill="#2196F3"/>
		</g>
	</g>
</g>
</svg>
