<?xml version="1.0" encoding="iso-8859-1"?>
<!-- Generator: Adobe Illustrator 16.0.0, SVG Export Plug-In . SVG Version: 6.00 Build 0)  -->
<!DOCTYPE svg PUBLIC "-//W3C//DTD SVG 1.1//EN" "http://www.w3.org/Graphics/SVG/1.1/DTD/svg11.dtd">
<svg xmlns="http://www.w3.org/2000/svg" xmlns:xlink="http://www.w3.org/1999/xlink" version="1.1" id="Capa_1" x="0px" y="0px" width="512px" height="512px" viewBox="0 0 792 792" style="enable-background:new 0 0 792 792;" xml:space="preserve">
<g>
	<g>
		<path d="M395.779,304.152c42.029,0,77.994-14.733,107.884-44.625c29.893-29.892,44.625-65.857,44.625-107.885    c0-42.028-14.834-77.448-44.625-107.016C473.661,14.844,437.808,0,395.779,0c-42.028,0-77.448,14.844-107.451,44.625    c-29.781,29.568-44.625,64.988-44.625,107.016c0,42.028,14.733,77.983,44.625,107.885    C318.229,289.418,353.75,304.152,395.779,304.152z M322.555,78.418c20.372-20.362,45.06-30.761,73.224-30.761    c29.033,0,53.294,10.398,73.658,30.761s30.762,45.06,30.762,73.224c0,29.032-10.398,53.721-30.762,74.092    s-44.625,30.326-73.658,30.326c-28.164,0-52.852-9.964-73.224-30.326c-20.362-20.363-30.761-45.06-30.761-74.092    C291.794,123.478,302.193,98.78,322.555,78.418z" fill="#455A64"/>
		<path d="M645.776,538.546v-10.832c0-104.438-93.568-196.702-198.006-196.702h-51.123h-50.689    c-53.757,0-100.083,21.666-138.646,59.359s-61.957,83.557-61.957,137.343v10.832v201.462c0,29.467,22.96,51.992,52.427,51.992    h198.864h197.57c14.299,0,26.75-5.306,36.824-15.158c10.297-10.075,15.602-22.101,15.602-36.834V538.546    C646.644,571.47,645.776,571.035,645.776,538.546z M594.218,744.343h-197.57H197.783c-3.032,0-4.335-1.294-4.335-4.335v-77.549    V538.546v-0.868c0-41.594,14.179-77.66,42.888-108.319c28.921-30.862,64.018-50.689,105.288-50.689h55.024h52.861    c39.939,0,73.973,18.31,102.246,47.222c28.488,29.144,45.93,63.204,45.93,103.55v8.236v0.868l0.859,201.462    C598.562,743.049,597.249,744.343,594.218,744.343z" fill="#455A64"/>
	</g>
</g>
</svg>
