<?xml version="1.0" encoding="UTF-8" standalone="no"?>
<svg
   xmlns:svg="http://www.w3.org/2000/svg"
   xmlns="http://www.w3.org/2000/svg"
   width="16.00419mm"
   height="8.1700439mm"
   viewBox="0 0 16.00419 8.1700439"
   version="1.1"
   id="svg8">
  <g id="layer1"
     transform="translate(-36.589264,-17.131982)">
    <g aria-label="0/M"
       style="font-style:normal;font-weight:normal;font-size:10.58333302px;line-height:1.25;font-family:sans-serif;letter-spacing:0px;word-spacing:0px;fill:#000000;fill-opacity:1;stroke:none;stroke-width:0.26458332"
       id="text3682">
      <path d="m 40.485667,23.994612 q -0.542603,1.028361 -1.679484,1.028361 -1.131714,0 -1.674317,-1.023193 -0.542602,-1.028361 -0.542602,-2.78536 0,-1.756998 0.542602,-2.780192 0.542603,-1.028361 1.674317,-1.028361 1.136881,0 1.679484,1.033529 0.54777,1.028361 0.54777,2.775024 0,1.746664 -0.54777,2.780192 z m -0.26355,-5.312337 q -0.490926,-0.961181 -1.415934,-0.961181 -0.919841,0 -1.410767,0.956014 -0.490926,0.950846 -0.490926,2.537312 0,1.586467 0.490926,2.542481 0.490926,0.950846 1.410767,0.950846 0.925008,0 1.415934,-0.956014 0.490926,-0.961181 0.490926,-2.537313 0,-1.576131 -0.490926,-2.532145 z"
         style="fill:#008000"
         id="path3690" />
      <path d="m 42.506215,25.302026 -0.28422,-0.118856 3.250447,-8.051188 0.284221,0.113689 z"
         style="fill:#1a1a1a"
         id="path3692" />
      <path d="m 48.10794,24.604394 h 4.170288 v -6.340698 l -2.382283,5.100464 -2.382284,-5.110799 v 6.66626 l -0.315226,-0.01034 v -7.4104 h 0.315226 l 2.382284,5.115967 2.382283,-5.105632 0.315226,-0.01033 v 7.420736 l -4.485514,-0.01034 z"
         style="fill:#333333"
         id="path3694" />
    </g>
  </g>
</svg>
