<?xml version="1.0" encoding="UTF-8" standalone="no"?>
<svg
   xmlns:svg="http://www.w3.org/2000/svg"
   xmlns="http://www.w3.org/2000/svg"
   width="40.354126mm"
   height="9.9063721mm"
   viewBox="0 0 40.354126 9.9063717"
   version="1.1"
   id="svg8">
  <g transform="translate(-54.447765,-61.670698)">
    <g aria-label="0/Manga" fill="#000000">
      <path
         d="m 58.344168,68.533328 q -0.542602,1.028361 -1.679484,1.028361 -1.131714,0 -1.674316,-1.023194 -0.542603,-1.028361 -0.542603,-2.785359 0,-1.756999 0.542603,-2.780192 0.542602,-1.028361 1.674316,-1.028361 1.136882,0 1.679484,1.033528 0.54777,1.028361 0.54777,2.775025 0,1.746663 -0.54777,2.780192 z m -0.26355,-5.312337 q -0.490926,-0.961182 -1.415934,-0.961182 -0.91984,0 -1.410766,0.956014 -0.490926,0.950846 -0.490926,2.537313 0,1.586466 0.490926,2.54248 0.490926,0.950847 1.410766,0.950847 0.925008,0 1.415934,-0.956014 0.490927,-0.961182 0.490927,-2.537313 0,-1.576131 -0.490927,-2.532145 z"
         fill="#008000"/>
      <path
         d="m 60.364717,69.840741 -0.284221,-0.118855 3.250448,-8.051188 0.28422,0.113688 z"
         fill="#111111"/>
      <path
         d="m 65.966442,69.14311 h 4.170288 v -6.340698 l -2.382284,5.100463 -2.382283,-5.110799 v 6.66626 l -0.315226,-0.01033 V 62.0376 h 0.315226 l 2.382283,5.115967 2.382284,-5.105631 0.315226,-0.01034 v 7.420736 l -4.485514,-0.01033 z"
         fill="#222222"/>
      <path
         d="m 73.056448,69.14311 h 3.451986 l -2.170411,-5.115967 -2.309936,5.431193 H 71.69219 l 2.645833,-6.242513 2.645834,6.242513 h -3.927409 z"
         fill="#222222"/>
      <path
         d="m 78.182751,69.458336 v -6.13916 h 0.315226 l 3.451985,5.555216 v -5.555216 h 0.315227 v 6.13916 h -0.315227 l -3.451985,-5.565552 v 5.565552 z"
         fill="#222222"/>
      <path
         d="m 86.745535,65.329389 1.405599,-1.173055 q -0.465088,-0.625285 -1.669149,-0.625285 -0.5271,0 -0.888835,0.113688 -0.361735,0.108521 -0.666626,0.413412 -0.299723,0.299723 -0.449585,0.878499 -0.144694,0.573609 -0.144694,1.452108 0,0.878499 0.144694,1.457275 0.149862,0.573609 0.449585,0.8785 0.304891,0.299723 0.661459,0.413411 0.361735,0.108521 0.894002,0.108521 1.193726,0 1.658813,-0.61495 v -1.870687 h 0.320394 v 2.790527 q 0,2.020549 -1.855184,2.025717 h -1.235066 v -0.320394 h 1.235066 q 0.795817,0 1.16272,-0.418579 0.37207,-0.41858 0.37207,-1.591634 v -0.160197 q -0.573608,0.475423 -1.658813,0.475423 -1.322917,0 -1.896525,-0.749309 -0.573608,-0.749308 -0.573608,-2.423624 0,-1.674316 0.573608,-2.423625 0.573608,-0.749308 1.896525,-0.749308 1.53479,0 2.08256,1.002523 l -1.322916,1.111043 z"
         fill="#222222"/>
      <path
         d="m 90.874481,69.14311 h 3.451986 l -2.17041,-5.115967 -2.309937,5.431193 h -0.335897 l 2.645834,-6.242513 2.645833,6.242513 h -3.927409 z"
         fill="#222222"/>
    </g>
  </g>
</svg>
